<svg width="161.16413574218748px" height="65.6px" xmlns="http://www.w3.org/2000/svg" viewBox="169.41793212890627 42.2 161.16413574218748 65.6" style="background: rgba(0, 0, 0, 0);" preserveAspectRatio="xMidYMid"><defs><filter id="editing-metal-beveled"><feGaussianBlur stdDeviation="4" in="SourceAlpha" result="blur"></feGaussianBlur><feSpecularLighting surfaceScale="5" specularConstant="0.8" specularExponent="7.5" lighting-color="#fff" in="blur" result="specular"><fePointLight x="-250" y="-50" z="300"></fePointLight></feSpecularLighting><feComposite operator="in" in="specular" in2="SourceAlpha" result="comp"></feComposite><feComposite in="SourceGraphic" in2="comp" operator="arithmetic" k1="0" k2="1" k3="1" k4="0"></feComposite></filter></defs><g filter="url(#editing-metal-beveled)"><g transform="translate(197.99995577335358, 83.39999961853027)"><path d="M4.42-13.92L4.42-2.78L6.58-2.78L6.58-2.78Q7.25-3.62 7.64-5.23L7.64-5.23L7.64-5.23Q8.04-6.84 8.04-8.42L8.04-8.42L8.04-8.42Q8.04-12.19 6.62-13.92L6.62-13.92L4.42-13.92ZM8.33 0L1.15 0L1.15-16.80L8.11-16.80L8.11-16.80Q11.52-13.78 11.52-8.60L11.52-8.60L11.52-8.60Q11.52-3.43 8.33 0L8.33 0ZM17.52 0L17.52 0L15 0L15 0Q13.94-1.34 13.56-2.69L13.56-2.69L13.56-2.69Q13.18-4.03 13.18-6.05L13.18-6.05L13.18-12.26L16.37-12.26L16.37-5.81L16.37-5.81Q16.37-3.62 17.23-2.52L17.23-2.52L19.46-2.52L19.46-12.26L22.66-12.26L22.66 0L20.14 0L19.70-0.86L19.70-0.86Q18.79 0 17.52 0ZM27.91 0L24.72 0L24.72-16.80L27.91-16.80L27.91-7.90L28.25-7.90L30.50-12.26L33.62-12.26L30.79-6.91L33.65 0L30.48 0L28.27-5.38L27.91-5.38L27.91 0ZM39.89-9.74L39.89-9.74L38.09-9.74L38.09-9.74Q37.73-9.31 37.50-8.54L37.50-8.54L37.50-8.54Q37.27-7.78 37.27-7.06L37.27-7.06L40.70-7.06L40.70-7.06Q40.75-7.78 40.51-8.56L40.51-8.56L40.51-8.56Q40.27-9.34 39.89-9.74ZM38.62-2.52L43.15-2.52L43.15 0L37.06 0L37.06 0Q35.38-1.13 34.69-2.80L34.69-2.80L34.69-2.80Q34.01-4.46 34.01-6.17L34.01-6.17L34.01-6.17Q34.01-10.10 36.98-12.26L36.98-12.26L40.87-12.26L40.87-12.26Q42.48-11.09 43.06-9.77L43.06-9.77L43.06-9.77Q43.63-8.45 43.63-7.10L43.63-7.10L43.63-7.10Q43.63-5.76 43.42-4.80L43.42-4.80L37.44-4.80L37.44-4.80Q37.51-4.25 37.86-3.54L37.86-3.54L37.86-3.54Q38.21-2.83 38.62-2.52L38.62-2.52ZM49.51-2.78L49.51-2.78L51.53-2.78L51.53-2.78Q52.06-3.36 52.28-3.95L52.28-3.95L52.28-3.95Q52.51-4.54 52.51-5.69L52.51-5.69L52.51-16.80L55.80-16.80L55.80-6.89L55.80-6.89Q55.80-5.66 55.74-4.98L55.74-4.98L55.74-4.98Q55.68-4.30 55.44-3.31L55.44-3.31L55.44-3.31Q55.03-1.56 53.18 0L53.18 0L47.86 0L47.86 0Q46.01-1.51 45.60-3.31L45.60-3.31L45.60-3.31Q45.24-4.78 45.24-6.89L45.24-6.89L45.24-16.80L48.53-16.80L48.53-5.69L48.53-5.69Q48.53-4.54 48.76-3.95L48.76-3.95L48.76-3.95Q48.98-3.36 49.51-2.78ZM63.19-12.26L63.19-12.26L65.74-12.26L65.74-12.26Q66.79-10.92 67.18-9.58L67.18-9.58L67.18-9.58Q67.56-8.23 67.56-6.22L67.56-6.22L67.56 0L64.37 0L64.37-6.46L64.37-6.46Q64.37-8.74 63.74-9.74L63.74-9.74L61.06-9.74L61.06 0L57.86 0L57.86-12.26L60.36-12.26L60.79-11.40L60.79-11.40Q61.32-11.88 61.79-12.07L61.79-12.07L61.79-12.07Q62.26-12.26 63.19-12.26ZM72.70 0L69.53 0L69.53-12.26L72.70-12.26L72.70 0ZM69.53-13.56L69.53-16.80L72.70-16.80L72.70-13.56L69.53-13.56ZM81.62 0L81.62 0L77.18 0L77.18 0Q76.03-0.94 75.36-2.47L75.36-2.47L75.36-2.47Q74.69-4.01 74.69-5.88L74.69-5.88L74.69-12.26L77.88-12.26L77.88-5.98L77.88-5.98Q77.88-3.86 78.67-2.52L78.67-2.52L80.14-2.52L80.14-2.52Q80.93-3.94 80.93-5.95L80.93-5.95L80.93-12.26L84.12-12.26L84.12-6L84.12-6Q84.12-4.10 83.45-2.52L83.45-2.52L83.45-2.52Q82.78-0.94 81.62 0ZM91.54-9.74L91.54-9.74L89.74-9.74L89.74-9.74Q89.38-9.31 89.15-8.54L89.15-8.54L89.15-8.54Q88.92-7.78 88.92-7.06L88.92-7.06L92.35-7.06L92.35-7.06Q92.40-7.78 92.16-8.56L92.16-8.56L92.16-8.56Q91.92-9.34 91.54-9.74ZM90.26-2.52L94.80-2.52L94.80 0L88.70 0L88.70 0Q87.02-1.13 86.34-2.80L86.34-2.80L86.34-2.80Q85.66-4.46 85.66-6.17L85.66-6.17L85.66-6.17Q85.66-10.10 88.63-12.26L88.63-12.26L92.52-12.26L92.52-12.26Q94.13-11.09 94.70-9.77L94.70-9.77L94.70-9.77Q95.28-8.45 95.28-7.10L95.28-7.10L95.28-7.10Q95.28-5.76 95.06-4.80L95.06-4.80L89.09-4.80L89.09-4.80Q89.16-4.25 89.51-3.54L89.51-3.54L89.51-3.54Q89.86-2.83 90.26-2.52L90.26-2.52ZM100.10 0L96.91 0L96.91-12.26L99.19-12.26L99.79-10.97L99.79-10.97Q100.75-12.26 102.22-12.26L102.22-12.26L103.15-12.26L103.15-9.05L100.10-9.05L100.10 0Z" fill="#444"></path></g></g><style>text {
  font-size: 64px;
  font-family: Arial Black;
  dominant-baseline: central;
  text-anchor: middle;
}</style></svg>